<?xml version="1.0" encoding="UTF-8"?>
<svg id="Layer_1" data-name="Layer 1" xmlns="http://www.w3.org/2000/svg" xmlns:xlink="http://www.w3.org/1999/xlink" viewBox="0 0 960 960">
  <defs>
    <style>
      .cls-1, .cls-2 {
        stroke-width: 0px;
      }

      .cls-2 {
        fill: none;
      }

      .cls-3 {
        clip-path: url(#clippath);
      }
    </style>
    <clipPath id="clippath">
      <rect class="cls-2" x="45.49" y="312.3" width="868.13" height="336.11"/>
    </clipPath>
  </defs>
  <g class="cls-3">
    <path class="cls-1" d="M913.63,312.3h-47.94c-13.31,0-25.74,6.6-33.22,17.59l-64.13,94.61c-1.34,1.97-4.02,2.47-5.98,1.14-.45-.3-.83-.69-1.14-1.14l-64.13-94.6c-7.46-11.02-19.9-17.62-33.21-17.61h-47.96l114.25,168.53-113.61,167.57h47.96c13.3,0,25.73-6.59,33.2-17.59l63.5-93.68c1.33-1.97,4.01-2.48,5.98-1.15.45.31.84.7,1.15,1.15l63.49,93.68c7.46,11.02,19.91,17.61,33.22,17.59h47.94l-113.61-167.57,114.23-168.53ZM517.27,346.68v301.73h22.92c18.99,0,34.38-15.39,34.38-34.38h0v-301.73h-22.92c-18.99,0-34.38,15.39-34.38,34.38h0M475.23,312.3h-20.4c-22.46-.02-41.93,15.52-46.89,37.42l-45.63,200.57-39.93-187.23c-7.38-34.61-42.9-57.94-79.23-47.91-23.14,6.39-40.29,25.94-45.3,49.43l-39.53,185.47-45.54-200.32c-5-21.89-24.46-37.42-46.91-37.43h-20.37l76.44,336.09h28.96c26.29,0,49-18.37,54.47-44.08l48.86-229.3c.63-2.85,3.14-4.88,6.05-4.91,2.89,0,5.45,2.06,6.05,4.9l48.92,229.33c5.48,25.7,28.19,44.08,54.47,44.07h29.05l76.45-336.09Z"/>
  </g>
</svg>