<svg
  aria-labelledby="title desc"
  role="img"
  viewBox="0 0 1200 630"
  xmlns="http://www.w3.org/2000/svg"
>
  <title>Smol abstract compression cover</title>
  <desc id="desc">
    A subtle stack of outlined image frames compressing into one small bright
    square on a near-black background.
  </desc>
  <defs>
    <filter id="grain">
      <feTurbulence
        baseFrequency="0.78"
        numOctaves="2"
        result="noise"
        stitchTiles="stitch"
        type="fractalNoise"
      ></feTurbulence>
      <feColorMatrix
        in="noise"
        type="matrix"
        values="0 0 0 0 1  0 0 0 0 1  0 0 0 0 1  0 0 0 0.028 0"
      ></feColorMatrix>
    </filter>
    <radialGradient cx="0.5" cy="0.5" id="endGlow" r="0.72">
      <stop offset="0" stop-color="#ededed" stop-opacity="0.42"></stop>
      <stop offset="0.38" stop-color="#ededed" stop-opacity="0.14"></stop>
      <stop offset="1" stop-color="#050505" stop-opacity="0"></stop>
    </radialGradient>
    <linearGradient
      gradientUnits="userSpaceOnUse"
      id="frameStroke"
      x1="160"
      x2="1010"
      y1="450"
      y2="290"
    >
      <stop offset="0" stop-color="#ededed" stop-opacity="0.72"></stop>
      <stop offset="0.52" stop-color="#ededed" stop-opacity="0.60"></stop>
      <stop offset="1" stop-color="#ededed" stop-opacity="0.44"></stop>
    </linearGradient>
  </defs>

  <rect fill="#050505" height="630" width="1200"></rect>

  <g fill="none" opacity="0.12" stroke="#ededed" stroke-width="1">
    <path d="M0 88H1200"></path>
    <path d="M0 540H1200"></path>
    <path d="M86 0V630"></path>
    <path d="M1015 0V630"></path>
    <path d="M1138 0V630"></path>
  </g>

  <g
    fill="none"
    stroke="url(#frameStroke)"
    stroke-linecap="round"
    stroke-linejoin="round"
    stroke-width="1.6"
    transform="translate(0 -4)"
  >
    <g opacity="0.78">
      <rect height="116" width="154" x="150" y="384"></rect>
      <path d="M150 478L197 430L226 456L270 414L304 449"></path>
      <circle cx="190" cy="416" r="14"></circle>
    </g>

    <g opacity="0.72">
      <rect height="112" width="151" x="206" y="374"></rect>
      <path d="M206 466L251 421L281 448L323 408L357 441"></path>
      <circle cx="245" cy="406" r="13"></circle>
    </g>
    <g opacity="0.68">
      <rect height="108" width="147" x="258" y="365"></rect>
      <path d="M258 454L302 412L331 437L372 400L405 431"></path>
      <circle cx="295" cy="398" r="12"></circle>
    </g>
    <g opacity="0.64">
      <rect height="104" width="143" x="307" y="356"></rect>
      <path d="M307 443L349 403L377 427L417 392L450 421"></path>
      <circle cx="342" cy="390" r="11"></circle>
    </g>
    <g opacity="0.60">
      <rect height="100" width="139" x="354" y="346"></rect>
      <path d="M354 431L395 394L422 416L460 383L493 411"></path>
      <circle cx="388" cy="381" r="10"></circle>
    </g>
    <g opacity="0.57">
      <rect height="96" width="134" x="399" y="337"></rect>
      <path d="M399 419L438 385L464 405L501 375L533 400"></path>
      <circle cx="431" cy="374" r="9"></circle>
    </g>
    <g opacity="0.54">
      <rect height="91" width="129" x="442" y="329"></rect>
      <path d="M442 407L480 377L505 395L540 367L571 390"></path>
      <circle cx="472" cy="366" r="8"></circle>
    </g>
    <g opacity="0.51">
      <rect height="87" width="124" x="483" y="320"></rect>
      <path d="M483 395L519 369L543 385L576 360L607 380"></path>
      <circle cx="511" cy="359" r="8"></circle>
    </g>
    <g opacity="0.48">
      <rect height="82" width="119" x="522" y="312"></rect>
      <path d="M522 383L556 362L579 375L611 353L641 370"></path>
      <circle cx="548" cy="352" r="7"></circle>
    </g>
    <g opacity="0.45">
      <rect height="78" width="113" x="559" y="304"></rect>
      <path d="M559 371L592 355L614 366L644 346L672 361"></path>
      <circle cx="583" cy="345" r="7"></circle>
    </g>
    <g opacity="0.42">
      <rect height="73" width="107" x="595" y="297"></rect>
      <path d="M595 359L626 348L647 357L675 340L702 352"></path>
      <circle cx="617" cy="339" r="6"></circle>
    </g>
    <g opacity="0.39">
      <rect height="68" width="101" x="628" y="290"></rect>
      <path d="M628 347L658 342L678 349L704 334L729 344"></path>
      <circle cx="648" cy="333" r="6"></circle>
    </g>
    <g opacity="0.36">
      <rect height="63" width="95" x="660" y="284"></rect>
      <path d="M660 336L688 336L707 341L731 329L755 337"></path>
      <circle cx="678" cy="327" r="5"></circle>
    </g>
    <g opacity="0.33">
      <rect height="58" width="88" x="690" y="278"></rect>
      <path d="M690 325L716 330L734 333L756 324L778 330"></path>
      <circle cx="706" cy="322" r="5"></circle>
    </g>
    <g opacity="0.30">
      <rect height="53" width="82" x="718" y="273"></rect>
      <path d="M718 315L743 324L759 326L779 320L800 324"></path>
      <circle cx="733" cy="317" r="4"></circle>
    </g>
    <g opacity="0.28">
      <rect height="48" width="75" x="745" y="268"></rect>
      <path d="M745 306L768 318L783 319L802 316L820 318"></path>
      <circle cx="758" cy="313" r="4"></circle>
    </g>
    <g opacity="0.25">
      <rect height="43" width="69" x="770" y="264"></rect>
      <path d="M770 297L791 312L806 313L822 312L839 313"></path>
      <circle cx="782" cy="309" r="4"></circle>
    </g>
    <g opacity="0.23">
      <rect height="39" width="63" x="793" y="260"></rect>
      <path d="M793 289L813 306L826 307L841 308L856 307"></path>
      <circle cx="804" cy="305" r="3"></circle>
    </g>
    <g opacity="0.21">
      <rect height="35" width="57" x="815" y="256"></rect>
      <path d="M815 282L833 301L845 302L858 304L872 302"></path>
      <circle cx="825" cy="301" r="3"></circle>
    </g>
    <g opacity="0.19">
      <rect height="31" width="52" x="835" y="253"></rect>
      <path d="M835 276L852 297L863 298L875 300L887 298"></path>
      <circle cx="844" cy="298" r="3"></circle>
    </g>
    <g opacity="0.17">
      <rect height="28" width="47" x="854" y="250"></rect>
      <path d="M854 271L869 293L879 294L890 296L901 294"></path>
      <circle cx="862" cy="294" r="2"></circle>
    </g>
    <g opacity="0.15">
      <rect height="25" width="42" x="872" y="247"></rect>
      <path d="M872 266L886 290L895 291L904 292L914 291"></path>
      <circle cx="879" cy="291" r="2"></circle>
    </g>
  </g>

  <rect filter="url(#grain)" height="630" opacity="0.4" width="1200"></rect>
</svg>
